# Blender v2.69 (sub 0) OBJ File: 'level.blend'
# www.blender.org
o Cone_mSpotLightCone
v 0.000000 -3.547908 0.000000
v 0.000000 5.318224 0.000000
v 0.000000 -3.547908 -6.718338
v 1.310683 -3.547908 -6.589247
v 2.570997 -3.547908 -6.206934
v 3.732509 -3.547908 -5.586094
v 4.750582 -3.547908 -4.750582
v 5.586094 -3.547908 -3.732508
v 6.206934 -3.547908 -2.570997
v 6.589247 -3.547908 -1.310683
v 6.718338 -3.547908 -0.000001
v 6.589247 -3.547908 1.310682
v 6.206935 -3.547908 2.570996
v 5.586094 -3.547908 3.732508
v 4.750582 -3.547908 4.750582
v 3.732508 -3.547908 5.586094
v 2.570996 -3.547908 6.206935
v 1.310681 -3.547908 6.589247
v -0.000002 -3.547908 6.718338
v -1.310685 -3.547908 6.589246
v -2.571000 -3.547908 6.206933
v -3.732512 -3.547908 5.586092
v -4.750586 -3.547908 4.750579
v -5.586096 -3.547908 3.732505
v -6.206937 -3.547908 2.570992
v -6.589248 -3.547908 1.310677
v -6.718338 -3.547908 -0.000006
v -6.589245 -3.547908 -1.310690
v -6.206932 -3.547908 -2.571003
v -5.586090 -3.547908 -3.732515
v -4.750576 -3.547908 -4.750588
v -3.732501 -3.547908 -5.586099
v -2.570987 -3.547908 -6.206938
v -1.310673 -3.547908 -6.589249
vn 0.000000 -1.000000 0.000000
vn 0.078259 0.602095 -0.794580
vn 0.231771 0.602095 -0.764044
vn 0.376374 0.602095 -0.704148
vn 0.506515 0.602095 -0.617190
vn 0.617191 0.602095 -0.506515
vn 0.704148 0.602095 -0.376375
vn 0.764044 0.602095 -0.231770
vn 0.794580 0.602095 -0.078259
vn 0.794580 0.602095 0.078259
vn 0.764044 0.602095 0.231770
vn 0.704147 0.602095 0.376375
vn 0.617191 0.602095 0.506515
vn 0.506515 0.602095 0.617190
vn 0.376375 0.602095 0.704147
vn 0.231770 0.602095 0.764044
vn 0.078259 0.602095 0.794580
vn -0.078260 0.602095 0.794580
vn -0.231770 0.602095 0.764044
vn -0.376375 0.602095 0.704147
vn -0.506515 0.602095 0.617190
vn -0.617191 0.602095 0.506514
vn -0.704148 0.602095 0.376374
vn -0.764045 0.602095 0.231769
vn -0.794580 0.602095 0.078259
vn -0.794580 0.602095 -0.078260
vn -0.764044 0.602095 -0.231771
vn -0.704147 0.602095 -0.376375
vn -0.617190 0.602095 -0.506516
vn -0.506514 0.602095 -0.617191
vn -0.376373 0.602095 -0.704148
vn -0.231769 0.602095 -0.764045
vn -0.078259 0.602095 -0.794580
s off
f 1//1 3//1 4//1
f 1//1 4//1 5//1
f 1//1 5//1 6//1
f 1//1 6//1 7//1
f 1//1 7//1 8//1
f 1//1 8//1 9//1
f 1//1 9//1 10//1
f 1//1 10//1 11//1
f 1//1 11//1 12//1
f 1//1 12//1 13//1
f 1//1 13//1 14//1
f 1//1 14//1 15//1
f 1//1 15//1 16//1
f 1//1 16//1 17//1
f 1//1 17//1 18//1
f 1//1 18//1 19//1
f 1//1 19//1 20//1
f 1//1 20//1 21//1
f 1//1 21//1 22//1
f 1//1 22//1 23//1
f 1//1 23//1 24//1
f 1//1 24//1 25//1
f 1//1 25//1 26//1
f 1//1 26//1 27//1
f 1//1 27//1 28//1
f 1//1 28//1 29//1
f 1//1 29//1 30//1
f 1//1 30//1 31//1
f 1//1 31//1 32//1
f 1//1 32//1 33//1
f 1//1 33//1 34//1
f 1//1 34//1 3//1
f 3//2 2//2 4//2
f 4//3 2//3 5//3
f 5//4 2//4 6//4
f 6//5 2//5 7//5
f 7//6 2//6 8//6
f 8//7 2//7 9//7
f 9//8 2//8 10//8
f 10//9 2//9 11//9
f 11//10 2//10 12//10
f 12//11 2//11 13//11
f 13//12 2//12 14//12
f 14//13 2//13 15//13
f 15//14 2//14 16//14
f 16//15 2//15 17//15
f 17//16 2//16 18//16
f 18//17 2//17 19//17
f 19//18 2//18 20//18
f 20//19 2//19 21//19
f 21//20 2//20 22//20
f 22//21 2//21 23//21
f 23//22 2//22 24//22
f 24//23 2//23 25//23
f 25//24 2//24 26//24
f 26//25 2//25 27//25
f 27//26 2//26 28//26
f 28//27 2//27 29//27
f 29//28 2//28 30//28
f 30//29 2//29 31//29
f 31//30 2//30 32//30
f 32//31 2//31 33//31
f 33//32 2//32 34//32
f 34//33 2//33 3//33
